<!-- icon666.com - MILLIONS vector ICONS FREE --><svg xmlns="http://www.w3.org/2000/svg" xmlns:xlink="http://www.w3.org/1999/xlink" version="1.1" id="Capa_1" x="0px" y="0px" viewBox="0 0 512 512" style="enable-background:new 0 0 512 512;" xml:space="preserve"><g><path d="M256,78.2c8.284,0,15-6.716,15-15V15c0-8.284-6.716-15-15-15s-15,6.716-15,15v48.2C241,71.484,247.716,78.2,256,78.2z"></path><path d="M109.065,130.278c5.858,5.858,15.355,5.858,21.213,0s5.858-15.355,0-21.213L96.196,74.982 c-5.858-5.858-15.355-5.858-21.213,0s-5.858,15.355,0,21.213L109.065,130.278z"></path><path d="M109.059,381.728L74.977,415.81c-5.858,5.858-5.858,15.355,0,21.213s15.355,5.858,21.213,0l34.083-34.083 c5.858-5.858,5.858-15.355,0-21.213S114.917,375.87,109.059,381.728z"></path><path d="M256,433.8c-8.284,0-15,6.716-15,15V497c0,8.284,6.716,15,15,15s15-6.716,15-15v-48.2C271,440.516,264.284,433.8,256,433.8 z"></path><path d="M78.2,256c0-8.284-6.716-15-15-15H15c-8.284,0-15,6.716-15,15s6.716,15,15,15h48.2C71.484,271,78.2,264.284,78.2,256z"></path><path d="M256,128.533c-70.285,0-127.467,57.182-127.467,127.467S185.715,383.467,256,383.467S383.467,326.285,383.467,256 S326.285,128.533,256,128.533z"></path><path d="M402.941,130.272l34.083-34.083c5.858-5.858,5.858-15.355,0-21.213s-15.355-5.858-21.213,0l-34.083,34.083 c-5.858,5.858-5.858,15.355,0,21.213S397.083,136.13,402.941,130.272z"></path><path d="M402.935,381.722c-5.858-5.858-15.355-5.858-21.213,0s-5.858,15.355,0,21.213l34.083,34.083 c5.858,5.858,15.355,5.858,21.213,0s5.858-15.355,0-21.213L402.935,381.722z"></path><path d="M497,241h-48.2c-8.284,0-15,6.716-15,15s6.716,15,15,15H497c8.284,0,15-6.716,15-15S505.284,241,497,241z"></path></g></svg>