<svg width="20" height="20" viewBox="0 0 20 20" fill="none" xmlns="http://www.w3.org/2000/svg">
<path fill-rule="evenodd" clip-rule="evenodd" d="M13.9646 12.6574L18.8962 17.5891C19.0696 17.7625 19.1669 17.9978 19.1668 18.243C19.1667 18.4882 19.0692 18.7234 18.8958 18.8967C18.7223 19.07 18.4871 19.1674 18.2419 19.1673C17.9966 19.1672 17.7615 19.0697 17.5882 18.8962L12.6565 13.9646C11.1822 15.1064 9.32833 15.6438 7.47194 15.4673C5.61555 15.2908 3.89612 14.4138 2.66343 13.0145C1.43075 11.6153 0.777399 9.79907 0.836305 7.93524C0.895211 6.07141 1.66195 4.30003 2.98053 2.98144C4.29911 1.66286 6.0705 0.896127 7.93432 0.83722C9.79815 0.778314 11.6144 1.43166 13.0136 2.66435C14.4129 3.89704 15.2899 5.61647 15.4664 7.47286C15.6429 9.32924 15.1055 11.1831 13.9637 12.6574H13.9646ZM8.16666 13.6667C9.62535 13.6667 11.0243 13.0872 12.0557 12.0557C13.0872 11.0243 13.6667 9.62535 13.6667 8.16666C13.6667 6.70796 13.0872 5.30902 12.0557 4.27757C11.0243 3.24612 9.62535 2.66666 8.16666 2.66666C6.70797 2.66666 5.30902 3.24612 4.27757 4.27757C3.24612 5.30902 2.66666 6.70796 2.66666 8.16666C2.66666 9.62535 3.24612 11.0243 4.27757 12.0557C5.30902 13.0872 6.70797 13.6667 8.16666 13.6667Z" fill="#ABAFB1" fill-opacity="0.6"/>
</svg>
