<svg width="28" height="28" viewBox="0 0 28 28" fill="none" xmlns="http://www.w3.org/2000/svg">
<path d="M10.0625 13.4375C10.5101 13.4375 10.9393 13.2597 11.2557 12.9432C11.5722 12.6268 11.75 12.1976 11.75 11.75C11.75 11.3024 11.5722 10.8732 11.2557 10.5568C10.9393 10.2403 10.5101 10.0625 10.0625 10.0625C9.61495 10.0625 9.18572 10.2403 8.86926 10.5568C8.55279 10.8732 8.375 11.3024 8.375 11.75C8.375 12.1976 8.55279 12.6268 8.86926 12.9432C9.18572 13.2597 9.61495 13.4375 10.0625 13.4375ZM9.806 17.7507C9.7079 17.6391 9.58865 17.548 9.45515 17.4827C9.32164 17.4174 9.17652 17.3792 9.02817 17.3704C8.87983 17.3615 8.73119 17.3821 8.59084 17.431C8.4505 17.4799 8.32123 17.5561 8.21051 17.6552C8.09979 17.7543 8.0098 17.8744 7.94575 18.0085C7.8817 18.1426 7.84486 18.2881 7.83735 18.4365C7.82984 18.5849 7.85182 18.7334 7.902 18.8733C7.95219 19.0131 8.0296 19.1417 8.12975 19.2515C8.86797 20.0779 9.77262 20.7389 10.7843 21.191C11.796 21.6432 12.8919 21.8763 14 21.875C15.1081 21.8763 16.204 21.6432 17.2157 21.191C18.2274 20.7389 19.132 20.0779 19.8703 19.2515C20.066 19.0287 20.1659 18.7377 20.1482 18.4416C20.1304 18.1456 19.9965 17.8686 19.7756 17.6707C19.5546 17.4729 19.2645 17.3703 18.9683 17.3853C18.6721 17.4003 18.3939 17.5316 18.194 17.7507C17.6669 18.3416 17.0206 18.8141 16.2978 19.1371C15.5749 19.4601 14.7918 19.6264 14 19.625C12.335 19.625 10.8388 18.9028 9.806 17.7507ZM19.625 11.75C19.625 12.1976 19.4472 12.6268 19.1307 12.9432C18.8143 13.2597 18.3851 13.4375 17.9375 13.4375C17.4899 13.4375 17.0607 13.2597 16.7443 12.9432C16.4278 12.6268 16.25 12.1976 16.25 11.75C16.25 11.3024 16.4278 10.8732 16.7443 10.5568C17.0607 10.2403 17.4899 10.0625 17.9375 10.0625C18.3851 10.0625 18.8143 10.2403 19.1307 10.5568C19.4472 10.8732 19.625 11.3024 19.625 11.75ZM27.5 14C27.5 12.2272 27.1508 10.4717 26.4724 8.83377C25.7939 7.19588 24.7995 5.70765 23.5459 4.45406C22.2923 3.20047 20.8041 2.20606 19.1662 1.52763C17.5283 0.849188 15.7728 0.5 14 0.5C12.2272 0.5 10.4717 0.849188 8.83377 1.52763C7.19588 2.20606 5.70765 3.20047 4.45406 4.45406C3.20047 5.70765 2.20606 7.19588 1.52763 8.83377C0.849188 10.4717 0.5 12.2272 0.5 14C0.5 17.5804 1.92232 21.0142 4.45406 23.5459C6.9858 26.0777 10.4196 27.5 14 27.5C17.5804 27.5 21.0142 26.0777 23.5459 23.5459C26.0777 21.0142 27.5 17.5804 27.5 14ZM2.75 14C2.75 11.0163 3.93526 8.15483 6.04505 6.04505C8.15483 3.93526 11.0163 2.75 14 2.75C16.9837 2.75 19.8452 3.93526 21.955 6.04505C24.0647 8.15483 25.25 11.0163 25.25 14C25.25 16.9837 24.0647 19.8452 21.955 21.955C19.8452 24.0647 16.9837 25.25 14 25.25C11.0163 25.25 8.15483 24.0647 6.04505 21.955C3.93526 19.8452 2.75 16.9837 2.75 14Z" fill="#A0A0A0"/>
</svg>
